<?xml version="1.0" standalone="no"?>
<!DOCTYPE svg PUBLIC "-//W3C//DTD SVG 20010904//EN"
 "http://www.w3.org/TR/2001/REC-SVG-20010904/DTD/svg10.dtd">
<svg version="1.0" xmlns="http://www.w3.org/2000/svg"
 width="70.000000pt" height="70.000000pt" viewBox="0 0 70.000000 70.000000"
 preserveAspectRatio="xMidYMid meet">
<metadata>
Created by potrace 1.11, written by Peter Selinger 2001-2013
</metadata>
<g transform="translate(0.000000,70.000000) scale(0.100000,-0.100000)"
fill="#000000" stroke="none">
<path d="M0 555 c0 -30 5 -55 10 -55 6 0 10 -23 10 -51 0 -46 15 -79 35 -79 4
0 20 -13 35 -30 17 -18 38 -30 54 -30 23 0 26 -4 26 -35 0 -19 -4 -35 -8 -35
-4 0 -8 -9 -8 -19 0 -11 4 -17 8 -15 8 5 12 -10 9 -35 -2 -7 2 -10 8 -6 7 3
11 -2 11 -14 0 -12 4 -21 10 -21 5 0 7 6 4 14 -3 8 -1 17 5 21 6 3 9 0 5 -8
-3 -8 -1 -18 5 -22 6 -3 11 0 11 7 0 10 3 9 10 -2 6 -10 4 -21 -8 -34 -16 -18
-16 -19 0 -13 9 3 19 1 21 -6 2 -7 4 12 4 42 1 30 -2 48 -7 42 -5 -9 -9 -3
-13 16 -3 15 -2 32 3 37 5 5 6 15 3 22 -3 9 2 14 16 14 12 0 21 5 21 10 0 6 7
10 15 10 8 0 15 5 15 11 0 14 26 39 40 39 14 0 40 -25 40 -39 0 -6 7 -11 15
-11 8 0 15 -4 15 -10 0 -5 9 -10 20 -10 15 0 20 -7 20 -26 0 -16 4 -23 12 -18
6 4 8 3 4 -4 -3 -5 -3 -12 1 -15 5 -2 2 -2 -4 -1 -7 2 -13 -6 -13 -17 0 -11
-4 -18 -8 -15 -7 4 -8 -21 -3 -64 1 -13 2 -13 11 0 8 13 10 13 10 0 0 -28 23
8 25 40 1 30 10 39 23 24 4 -4 1 -4 -7 1 -10 6 -12 4 -7 -4 10 -15 19 -7 23
22 2 12 8 26 13 31 6 6 10 19 10 31 0 16 -2 17 -10 5 -9 -13 -10 -13 -10 0 0
8 -3 25 -6 38 -6 19 -3 22 26 22 23 0 40 9 60 30 15 17 31 30 35 30 20 0 35
33 35 79 0 28 5 51 10 51 6 0 10 25 10 55 0 59 -7 67 -30 35 -8 -11 -18 -20
-23 -20 -16 0 -57 -50 -57 -70 0 -11 -4 -20 -10 -20 -5 0 -10 9 -10 21 0 20
-21 49 -36 49 -3 0 -15 10 -25 22 l-19 21 -19 -21 c-10 -12 -26 -22 -35 -22
-9 0 -16 -4 -16 -10 0 -5 -7 -10 -15 -10 -8 0 -15 -7 -15 -15 0 -11 -11 -15
-40 -15 -29 0 -40 4 -40 15 0 8 -7 15 -15 15 -8 0 -15 5 -15 10 0 6 -7 10 -16
10 -9 0 -26 10 -37 23 -13 15 -21 18 -24 10 -3 -7 -9 -13 -14 -13 -18 0 -59
-49 -59 -70 0 -11 -4 -20 -10 -20 -5 0 -10 9 -10 20 0 20 -41 70 -57 70 -5 0
-15 9 -23 20 -23 32 -30 24 -30 -35z m240 -279 c0 -3 -4 -8 -10 -11 -5 -3 -10
-1 -10 4 0 6 5 11 10 11 6 0 10 -2 10 -4z m240 -18 c0 -19 -2 -20 -10 -8 -13
19 -13 30 0 30 6 0 10 -10 10 -22z m6 -126 c-3 -16 -36 -26 -36 -11 0 5 5 9
11 9 5 0 8 4 5 8 -3 5 1 9 8 9 8 0 13 -7 12 -15z"/>
<path d="M210 118 c0 -4 4 -8 9 -8 6 0 12 4 15 8 3 5 -1 9 -9 9 -8 0 -15 -4
-15 -9z"/>
</g>
</svg>
