<?xml version="1.0" standalone="no"?>
<!DOCTYPE svg PUBLIC "-//W3C//DTD SVG 20010904//EN"
 "http://www.w3.org/TR/2001/REC-SVG-20010904/DTD/svg10.dtd">
<svg version="1.0" xmlns="http://www.w3.org/2000/svg"
 width="270.000000pt" height="270.000000pt" viewBox="0 0 270.000000 270.000000"
 preserveAspectRatio="xMidYMid meet">
<metadata>
Created by potrace 1.11, written by Peter Selinger 2001-2013
</metadata>
<g transform="translate(0.000000,270.000000) scale(0.100000,-0.100000)"
fill="#000000" stroke="none">
<path d="M0 2140 l0 -210 40 0 40 0 0 -215 0 -215 35 0 c33 0 35 -2 35 -35 l0
-35 60 0 60 0 0 -40 0 -40 40 0 40 0 0 -40 c0 -39 1 -40 35 -40 33 0 35 -2 35
-35 l0 -35 121 0 122 0 -5 -75 c-3 -46 -1 -79 6 -86 8 -9 7 -10 -3 -4 -11 6
-13 1 -9 -24 2 -17 1 -31 -3 -31 -4 0 -4 -12 0 -28 8 -27 7 -27 -30 -24 l-38
4 2 -61 c1 -38 6 -62 14 -65 7 -3 11 -11 9 -18 -1 -7 -1 -9 2 -4 2 4 9 2 14
-5 6 -10 7 -7 3 10 -6 18 -4 22 6 15 12 -6 12 -5 0 9 -12 15 -11 17 3 17 13 0
16 -7 12 -30 -3 -20 0 -30 9 -30 7 0 19 -8 26 -17 13 -16 12 -17 -4 -4 -20 16
-32 9 -24 -13 4 -9 14 -12 25 -9 11 2 22 1 25 -4 3 -5 -8 -8 -24 -7 -23 2 -29
-2 -26 -14 2 -10 9 -16 16 -14 7 1 10 -2 6 -8 -3 -6 -10 -8 -15 -5 -10 6 -7
-45 4 -63 4 -7 15 -11 23 -8 10 4 13 2 10 -8 -4 -10 -1 -13 9 -9 13 5 13 8 -1
23 -8 9 -12 20 -9 23 4 4 1 14 -7 23 -13 16 -12 16 7 6 12 -6 24 -9 27 -6 3 4
6 -13 5 -35 0 -47 8 -62 23 -41 9 13 10 12 6 -2 -3 -9 1 -19 9 -22 11 -4 13 1
10 19 -4 24 -4 24 16 10 15 -10 25 -11 34 -4 7 6 15 6 18 1 3 -5 17 -7 31 -5
13 3 22 9 20 13 -3 5 -1 12 5 15 6 4 9 2 8 -4 -2 -5 6 -17 17 -25 14 -12 15
-14 4 -10 -10 3 -20 1 -24 -5 -3 -6 -11 -11 -16 -11 -6 0 -8 4 -5 9 4 5 -1 8
-10 7 -26 -4 -27 -53 -1 -71 12 -8 16 -15 10 -15 -7 0 -15 5 -18 10 -11 17
-23 1 -20 -25 3 -31 -9 -32 -29 -3 -11 15 -12 26 -5 39 8 15 6 17 -13 14 -12
-3 -26 -10 -31 -17 -6 -9 -7 -8 -3 5 4 12 2 16 -7 12 -6 -4 -3 0 7 9 19 15 19
16 0 22 -10 4 -22 9 -26 11 -5 2 -8 -3 -8 -12 0 -10 5 -13 13 -9 9 6 9 4 -1
-8 -10 -13 -10 -17 0 -21 10 -4 10 -8 -2 -17 -13 -10 -12 -11 4 -6 14 5 17 2
12 -9 -3 -9 -2 -14 3 -11 5 3 15 -2 22 -11 12 -14 11 -15 -6 -10 -11 4 -27 2
-35 -4 -12 -9 -12 -10 3 -5 10 3 28 1 39 -5 15 -8 19 -8 13 0 -4 8 2 10 19 7
39 -7 43 -13 41 -48 l-3 -33 74 -2 c46 -2 74 1 74 8 0 6 -5 7 -12 3 -7 -5 -8
-3 -3 7 16 25 14 62 -3 76 -16 12 -15 13 2 6 13 -4 17 -3 12 5 -4 7 -2 12 6
12 8 0 9 3 3 8 -5 4 -10 45 -10 92 0 78 -2 85 -20 85 -11 -1 -24 4 -28 10 -5
6 -7 4 -4 -5 2 -8 10 -14 16 -12 6 1 11 -3 11 -9 0 -5 5 -7 12 -3 7 4 8 3 4
-4 -4 -6 -13 -9 -20 -6 -8 3 -17 1 -20 -4 -3 -6 1 -13 10 -16 8 -3 12 -2 9 4
-3 5 0 7 8 4 7 -2 14 -11 14 -18 0 -11 -9 -12 -49 -7 -3 1 -5 9 -4 19 2 9 -4
23 -13 30 -14 11 -14 11 3 5 12 -4 17 -3 13 4 -3 5 -7 42 -8 82 -1 39 -6 74
-10 77 -5 3 -9 11 -9 17 0 7 4 6 10 -3 8 -12 10 -10 10 10 0 48 3 65 14 79 8
11 8 13 -2 7 -12 -7 -17 21 -12 68 1 11 -3 15 -9 12 -6 -4 -11 -2 -11 4 0 6
-4 9 -9 6 -5 -4 -12 0 -14 6 -4 10 -6 10 -6 1 -1 -7 -9 -13 -18 -13 -15 0 -16
2 -3 10 10 6 11 10 3 10 -7 0 -13 4 -13 9 0 4 14 7 31 5 18 -2 28 0 24 6 -4 6
-12 10 -18 9 -26 -3 -37 2 -37 16 0 12 9 15 39 13 37 -3 38 -4 37 -38 l-1 -35
78 -3 77 -3 0 41 0 40 60 0 60 0 0 60 0 60 35 0 c33 0 35 2 35 35 l0 35 80 0
80 0 0 -35 c0 -33 2 -35 35 -35 l35 0 0 -60 0 -60 60 0 60 0 0 -40 0 -40 75 0
75 0 0 40 0 40 40 -2 41 -1 -3 -41 c-3 -38 -5 -41 -33 -41 l-30 0 -1 -115 c-1
-63 -3 -153 -5 -200 -3 -89 5 -135 23 -124 7 4 6 9 -2 14 -9 5 -9 9 -1 14 6 4
11 2 11 -5 0 -7 9 -5 22 7 17 14 19 15 10 2 -12 -15 -11 -17 7 -15 12 1 24 10
27 20 3 10 8 16 11 14 2 -3 0 -14 -6 -25 -8 -15 -7 -21 4 -26 18 -6 30 10 13
18 -7 3 -2 3 11 0 20 -5 23 -3 18 10 -4 10 -3 14 2 11 5 -3 12 -1 16 5 3 5 2
10 -2 10 -5 0 -10 12 -11 27 -1 15 -7 30 -13 34 -7 4 -5 9 6 13 9 3 14 9 11
14 -2 4 4 9 15 9 18 2 18 0 -3 -17 -28 -24 -16 -26 18 -4 23 16 24 16 17 -2
-6 -15 -2 -14 27 6 18 13 30 18 25 11 -5 -9 -3 -12 4 -10 7 3 12 8 12 12 -1 4
-1 18 -1 32 0 19 -4 23 -17 19 -10 -3 -7 1 6 9 13 8 32 12 43 9 11 -2 18 1 18
9 0 11 2 11 10 -1 7 -12 9 -10 7 7 -1 17 -6 21 -22 18 -11 -2 -22 -4 -25 -4
-3 -1 2 -6 10 -11 8 -5 11 -10 5 -10 -22 0 -35 17 -33 42 2 19 7 25 20 23 18
-4 24 6 11 19 -11 11 -14 46 -4 46 5 0 8 -8 6 -18 -1 -9 2 -23 8 -29 6 -9 6
-18 -2 -27 -8 -10 -9 -16 -1 -21 5 -3 10 -1 10 5 0 6 3 9 8 7 4 -3 8 9 9 25 1
17 8 37 14 45 10 11 10 13 -1 11 -15 -3 -22 49 -8 58 15 10 -12 33 -34 29 -25
-5 -34 -13 -24 -22 4 -4 11 -1 16 7 9 14 10 13 10 -17 0 -5 -4 -8 -10 -8 -5 0
-16 -9 -25 -20 l-16 -20 9 20 c5 11 8 31 7 45 -2 14 -4 42 -4 63 -1 30 -5 37
-21 37 -17 0 -20 7 -20 51 0 28 4 48 9 44 5 -3 13 0 17 6 4 7 3 9 -4 5 -6 -3
-13 -2 -17 4 -4 7 40 10 129 10 l136 0 0 35 c0 33 2 35 35 35 34 0 35 1 35 40
l0 40 40 0 40 0 0 40 0 40 60 0 60 0 0 35 c0 33 2 35 35 35 l35 0 0 215 0 215
40 0 40 0 0 210 0 210 -40 0 c-39 0 -40 -1 -40 -35 0 -33 -2 -35 -35 -35 -34
0 -35 -1 -35 -40 l0 -40 -60 0 -60 0 0 -40 0 -40 -40 0 -40 0 0 -40 c0 -39 -1
-40 -35 -40 l-35 0 0 -95 0 -95 -40 0 -40 0 0 95 0 95 -40 0 -40 0 0 40 0 40
-55 0 -55 0 0 40 0 40 -40 0 -40 0 0 40 0 40 -40 0 -40 0 0 -40 0 -40 -40 0
-40 0 0 -40 0 -40 -75 0 -75 0 0 -40 0 -40 -60 0 -60 0 0 -55 0 -55 -150 0
-150 0 0 55 0 55 -60 0 -60 0 0 40 0 40 -75 0 -75 0 0 40 0 40 -40 0 -40 0 0
40 0 40 -40 0 -40 0 0 -40 0 -40 -55 0 -55 0 0 -40 0 -40 -40 0 -40 0 0 -40 0
-40 -40 0 -40 0 0 -95 0 -95 -40 0 -40 0 0 95 0 95 -35 0 c-34 0 -35 1 -35 40
l0 40 -40 0 -40 0 0 40 0 40 -60 0 -60 0 0 40 c0 39 -1 40 -35 40 -33 0 -35 2
-35 35 0 34 -1 35 -40 35 l-40 0 0 -210z m710 -1094 c0 -3 -4 -8 -10 -11 -5
-3 -10 -1 -10 4 0 6 5 11 10 11 6 0 10 -2 10 -4z m194 -64 c3 -5 -1 -9 -9 -9
-8 0 -12 4 -9 9 3 4 7 8 9 8 2 0 6 -4 9 -8z m941 -4 c5 4 5 2 1 -5 -8 -14 -36
-6 -36 9 0 7 5 6 13 -1 8 -6 18 -7 22 -3z m-30 -26 c13 -9 13 -27 1 -39 -5 -5
-6 -3 -2 5 4 6 2 12 -4 12 -6 0 -9 4 -6 9 4 5 0 12 -6 14 -7 3 -8 6 -3 6 6 0
15 -3 20 -7z m290 -13 c-7 -11 -35 -12 -35 -1 0 4 9 8 20 9 11 1 18 -2 15 -8z
m-1495 -23 c0 -3 -4 -8 -10 -11 -5 -3 -10 -1 -10 4 0 6 5 11 10 11 6 0 10 -2
10 -4z m14 -32 c3 -8 2 -12 -4 -9 -6 3 -10 10 -10 16 0 14 7 11 14 -7z m1201
-4 c3 -5 1 -10 -4 -10 -6 0 -11 5 -11 10 0 6 2 10 4 10 3 0 8 -4 11 -10z
m-1220 -20 c-3 -5 -2 -10 4 -10 5 0 9 -9 8 -20 -1 -21 -12 -26 -22 -10 -3 6
-1 10 6 10 10 0 10 3 1 12 -15 15 -15 28 -1 28 5 0 7 -4 4 -10z m65 -16 c0 -2
-9 -4 -20 -4 -11 0 -20 4 -20 9 0 5 9 7 20 4 11 -3 20 -7 20 -9z m1160 -8 c0
-6 5 -4 10 4 8 13 10 12 10 -4 0 -12 -5 -16 -15 -13 -8 4 -17 2 -20 -3 -6 -10
9 -15 30 -10 6 1 6 -2 2 -6 -4 -5 -20 -9 -35 -11 -15 -1 -21 0 -14 3 10 5 10
9 0 22 -11 13 -11 14 1 7 11 -6 13 -4 9 7 -4 9 0 15 8 15 8 0 14 -5 14 -11z
m-930 -10 c0 -2 -8 -10 -17 -17 -16 -13 -17 -12 -4 4 13 16 21 21 21 13z m-4
-48 c-10 -6 -22 -6 -26 -2 -5 5 3 10 18 11 22 1 24 0 8 -9z m954 -5 c0 -3 -6
-3 -12 0 -7 2 -22 0 -33 -5 -19 -9 -19 -8 -2 6 17 13 47 12 47 -1z m-1129 -21
c-7 -2 -18 1 -23 6 -8 8 -4 9 13 5 13 -4 18 -8 10 -11z m1229 -7 c0 -8 -4 -15
-10 -15 -5 0 -7 7 -4 15 4 8 8 15 10 15 2 0 4 -7 4 -15z m60 8 c0 -1 -8 -7
-18 -12 -13 -7 -19 -6 -19 2 0 7 9 13 19 13 10 0 18 -1 18 -3z m0 -27 c0 -2
-7 -7 -16 -10 -8 -3 -12 -2 -9 4 6 10 25 14 25 6z m-1305 -34 c-3 -3 -11 0
-18 7 -9 10 -8 11 6 5 10 -3 15 -9 12 -12z m1120 -12 c3 -5 1 -10 -4 -10 -6 0
-11 5 -11 10 0 6 2 10 4 10 3 0 8 -4 11 -10z m73 -4 c-2 -1 -12 -9 -24 -19
-17 -14 -21 -14 -21 -3 0 8 5 14 11 13 6 -1 10 3 9 10 -2 7 4 10 13 6 8 -3 14
-6 12 -7z m-1171 -2 c-3 -3 -12 -4 -19 -1 -8 3 -5 6 6 6 11 1 17 -2 13 -5z
m100 -19 c0 -8 -4 -12 -9 -9 -5 3 -6 10 -3 15 9 13 12 11 12 -6z m-140 -25
c-2 -24 -19 -21 -23 3 -1 9 4 17 11 17 8 0 13 -9 12 -20z m183 16 c0 -3 -4 -8
-10 -11 -5 -3 -10 -1 -10 4 0 6 5 11 10 11 6 0 10 -2 10 -4z m966 -28 c3 -4
-1 -5 -10 -4 -8 1 -18 5 -22 8 -3 4 1 5 10 4 8 -1 18 -5 22 -8z m28 -4 c3 -8
2 -12 -4 -9 -6 3 -10 10 -10 16 0 14 7 11 14 -7z m-884 -50 c0 -8 -19 -13 -24
-6 -3 5 1 9 9 9 8 0 15 -2 15 -3z m-100 -34 c-5 -3 6 -14 25 -23 24 -11 33
-21 29 -32 -4 -10 5 -21 25 -32 17 -10 31 -21 31 -26 0 -6 -38 11 -50 23 -3 3
-11 6 -17 8 -22 4 -14 -14 10 -26 12 -6 16 -11 9 -11 -7 -1 -10 -6 -7 -11 5
-8 11 -7 21 1 10 8 14 8 14 0 0 -6 -4 -11 -10 -11 -5 0 -10 -5 -10 -11 0 -5 5
-7 10 -4 6 3 10 1 10 -4 0 -16 -20 -13 -26 4 -4 8 -10 13 -14 10 -5 -3 -13 2
-18 11 -6 10 -12 13 -16 6 -3 -6 3 -17 14 -25 21 -14 20 -15 -8 -14 -30 2 -34
10 -18 36 7 11 5 13 -7 8 -9 -3 -16 -3 -16 1 1 4 0 9 -1 12 -1 3 -3 20 -5 38
-2 25 1 30 11 21 17 -14 35 -3 28 16 -4 8 -10 12 -15 9 -5 -3 -9 -2 -10 3 0 4
-2 18 -3 30 -2 18 0 20 11 11 9 -7 10 -13 3 -18z m38 2 c-8 -10 -9 -13 -1 -9
6 4 14 3 18 -3 7 -11 -5 -13 -29 -4 -12 5 -13 10 -5 25 5 11 14 17 20 13 6 -4
5 -12 -3 -22z m47 0 c-3 -3 -11 0 -18 7 -9 10 -8 11 6 5 10 -3 15 -9 12 -12z
m25 -19 c0 -1 -8 -7 -18 -12 -13 -7 -19 -6 -19 2 0 7 9 13 19 13 10 0 18 -1
18 -3z m-195 -24 c-4 -5 1 -20 12 -31 18 -21 18 -21 -4 -9 -12 6 -25 16 -28
21 -7 12 2 30 16 30 6 0 7 -5 4 -11z m175 -19 c-8 -5 -17 -7 -19 -4 -3 3 1 9
9 14 8 5 17 7 19 4 3 -3 -1 -9 -9 -14z"/>
<path d="M904 491 c3 -4 -3 -16 -13 -25 -15 -13 -20 -14 -24 -4 -3 7 -4 2 -2
-12 1 -14 8 -24 14 -22 6 1 11 -2 11 -6 0 -4 10 -8 23 -9 l22 -2 -23 13 c-20
10 -21 14 -9 24 7 7 18 8 23 4 4 -4 3 0 -4 10 -10 13 -10 17 0 20 8 3 6 7 -6
11 -9 4 -15 3 -12 -2z m6 -24 c0 -2 -10 -12 -22 -23 l-23 -19 19 23 c18 21 26
27 26 19z"/>
<path d="M2020 1151 c0 -6 4 -13 10 -16 6 -3 7 1 4 9 -7 18 -14 21 -14 7z"/>
<path d="M2020 1116 c0 -2 7 -7 16 -10 8 -3 12 -2 9 4 -6 10 -25 14 -25 6z"/>
<path d="M868 1063 c7 -3 16 -2 19 1 4 3 -2 6 -13 5 -11 0 -14 -3 -6 -6z"/>
<path d="M585 980 c-3 -6 1 -7 9 -4 18 7 21 14 7 14 -6 0 -13 -4 -16 -10z"/>
<path d="M955 900 c-3 -5 -1 -10 4 -10 6 0 11 5 11 10 0 6 -2 10 -4 10 -3 0
-8 -4 -11 -10z"/>
<path d="M2067 833 c-4 -3 -7 -13 -7 -21 0 -18 13 -7 16 13 2 17 1 18 -9 8z"/>
<path d="M1705 681 c-3 -5 0 -13 6 -17 7 -4 9 -3 5 4 -3 5 0 13 6 15 9 4 10 6
1 6 -6 1 -14 -3 -18 -8z"/>
<path d="M1744 674 c-18 -14 -18 -15 4 -4 12 6 22 13 22 15 0 8 -5 6 -26 -11z"/>
<path d="M2002 674 c-14 -10 -23 -11 -27 -4 -11 17 -34 -8 -30 -32 3 -11 7
-23 10 -26 2 -3 0 -11 -7 -19 -8 -11 -7 -12 6 -7 10 4 16 1 16 -7 0 -9 3 -10
8 -4 4 6 20 11 37 10 27 0 29 3 30 37 1 20 -2 35 -7 32 -4 -3 -8 -1 -8 5 0 5
5 11 12 13 8 3 6 6 -4 10 -9 4 -25 0 -36 -8z m23 -4 c-3 -5 -3 -16 2 -22 4 -7
8 -22 9 -33 0 -17 -5 -21 -33 -21 -24 0 -35 6 -40 21 -14 40 -9 60 10 48 20
-13 35 -12 41 3 3 8 8 14 11 14 4 0 3 -4 0 -10z"/>
<path d="M1965 639 c5 -26 21 -38 44 -34 24 3 20 40 -4 40 -11 0 -25 4 -32 8
-8 5 -11 1 -8 -14z m52 -15 c0 -14 -23 -12 -37 2 -7 7 -2 10 13 10 13 0 24 -5
24 -12z"/>
<path d="M1752 655 c4 -4 3 -15 -2 -24 -10 -20 3 -50 14 -32 4 6 2 11 -4 11
-7 0 -8 6 0 19 7 15 7 22 -2 27 -7 4 -10 4 -6 -1z"/>
<path d="M1725 640 c3 -5 8 -10 11 -10 2 0 4 5 4 10 0 6 -5 10 -11 10 -5 0 -7
-4 -4 -10z"/>
<path d="M1700 623 c0 -3 8 -15 18 -26 15 -18 15 -20 0 -14 -14 5 -16 -3 -14
-65 1 -51 6 -73 15 -76 10 -3 12 0 8 12 -4 9 -2 16 2 16 5 0 12 -8 15 -17 6
-15 9 -15 17 -3 9 13 10 12 5 -2 -3 -10 -1 -20 4 -23 6 -4 10 0 11 7 0 7 2 21
4 31 2 13 -1 16 -13 13 -9 -3 -24 -1 -32 4 -8 5 -10 10 -5 11 6 0 1 4 -10 9
-16 7 -17 9 -3 9 9 1 21 -7 27 -16 9 -17 11 -17 25 2 8 11 14 27 12 35 -5 28
-18 50 -26 45 -9 -6 -50 41 -43 49 4 3 1 6 -5 6 -7 0 -12 -3 -12 -7z m45 -73
c0 -7 -6 -14 -13 -16 -7 -1 -8 0 -2 3 5 2 10 9 10 14 0 6 -4 8 -9 4 -5 -3 -12
-1 -15 4 -4 5 2 8 11 7 10 -2 18 -9 18 -16z m25 -30 c0 -5 -4 -10 -10 -10 -5
0 -10 5 -10 10 0 6 5 10 10 10 6 0 10 -4 10 -10z"/>
<path d="M653 585 c0 -7 6 -11 14 -8 7 3 13 6 13 8 0 2 -6 5 -13 8 -8 3 -14
-1 -14 -8z"/>
<path d="M785 551 c-1 -24 3 -27 29 -26 16 1 32 7 34 14 3 8 -6 10 -30 7 -18
-3 -27 -3 -20 0 16 7 16 21 -1 27 -8 3 -12 -5 -12 -22z"/>
<path d="M827 566 c-4 -10 -1 -13 8 -9 8 3 12 9 9 14 -7 12 -11 11 -17 -5z"/>
<path d="M1804 549 c-11 -13 -12 -19 -3 -24 8 -6 7 -10 -5 -17 -9 -5 -13 -14
-9 -21 21 -33 -8 -100 -35 -83 -6 3 -12 -1 -16 -9 -3 -8 -1 -17 4 -20 6 -4 10
-1 10 6 0 7 3 9 6 6 4 -3 15 -2 25 4 15 7 17 6 13 -6 -3 -8 -10 -13 -14 -10
-5 3 -14 -1 -22 -8 -11 -12 -17 -10 -32 11 -11 14 -13 22 -6 17 10 -6 12 -4 7
9 -4 9 -3 15 2 11 5 -3 12 1 14 7 4 10 6 10 6 1 1 -7 6 -13 13 -13 23 0 -12
25 -36 25 -20 1 -23 -4 -22 -42 0 -31 4 -42 13 -39 7 3 16 -2 21 -11 8 -13 10
-13 15 0 4 10 16 14 41 11 21 -2 36 1 36 8 0 6 7 5 18 -3 14 -11 15 -11 5 1
-15 17 -17 34 -3 25 6 -3 7 1 4 9 -3 9 -10 16 -16 16 -5 0 -6 5 -3 10 5 8 11
8 20 0 8 -7 15 -7 19 -1 4 5 19 8 34 6 15 -2 21 -2 15 1 -7 3 -13 10 -13 15 0
6 6 7 13 3 8 -5 8 -2 -2 9 -11 14 -11 17 0 17 8 0 5 6 -7 15 -19 15 -19 15 1
9 20 -5 20 -5 1 7 -15 9 -21 9 -24 1 -2 -7 -8 -12 -13 -12 -5 0 -4 9 3 20 8
13 16 16 22 10 16 -16 24 -11 24 15 0 25 -12 33 -23 15 -4 -7 -14 -6 -28 2
-33 18 -55 17 -73 -3z m71 -7 c13 -7 15 -12 6 -12 -8 0 -11 -3 -8 -7 4 -3 2
-12 -4 -20 -11 -13 -9 -15 20 -17 16 -1 25 -36 10 -36 -6 0 -7 -5 -3 -12 4 -6
3 -8 -4 -4 -6 3 -14 2 -17 -4 -5 -8 -11 -8 -20 0 -9 7 -16 6 -24 -4 -8 -10 -9
-16 -1 -21 14 -9 -3 -38 -24 -41 -13 -2 -14 2 -6 17 10 18 6 24 -15 19 -5 -1
-3 7 6 17 17 20 19 50 5 72 -6 9 -5 12 1 8 6 -4 13 0 17 8 3 8 1 17 -5 21 -15
9 7 31 28 29 10 0 27 -6 38 -13z m42 -7 c0 -8 -4 -12 -9 -9 -5 3 -6 10 -3 15
9 13 12 11 12 -6z"/>
<path d="M1814 539 c-2 -4 0 -10 6 -14 6 -4 7 -13 2 -23 -5 -9 -8 -28 -7 -42
1 -14 -3 -30 -7 -37 -5 -6 -5 -14 1 -17 6 -4 8 -14 5 -24 -5 -14 -4 -14 4 -2
7 9 7 19 1 26 -6 7 -2 17 10 28 13 12 21 14 26 6 8 -13 22 -5 36 22 8 15 8 19
0 13 -16 -9 -43 15 -33 29 15 20 7 39 -16 41 -13 1 -25 -2 -28 -6z m42 -16
c-1 -7 -5 -16 -9 -19 -4 -4 2 -18 14 -30 12 -13 16 -24 10 -28 -5 -4 -13 -2
-16 4 -5 8 -11 8 -20 0 -10 -8 -12 -4 -10 22 2 18 8 34 14 36 8 3 6 8 -4 16
-15 10 -14 12 3 12 11 0 19 -6 18 -13z"/>
<path d="M1833 475 c0 -8 3 -13 5 -10 3 3 12 -1 21 -7 10 -8 9 -4 -3 10 -23
26 -23 26 -23 7z"/>
<path d="M823 489 c-1 -12 -1 -20 0 -18 2 2 9 12 16 22 11 14 11 17 -1 17 -7
0 -14 -10 -15 -21z"/>
<path d="M1028 473 c6 -2 18 -2 25 0 6 3 1 5 -13 5 -14 0 -19 -2 -12 -5z"/>
<path d="M1635 469 c-4 -6 -5 -12 -2 -15 2 -3 7 2 10 11 7 17 1 20 -8 4z"/>
<path d="M950 330 c0 -5 6 -10 13 -10 7 0 13 -8 14 -19 1 -13 -3 -17 -17 -14
-10 3 -20 1 -23 -4 -3 -5 7 -8 21 -7 20 0 27 6 28 23 1 12 -7 26 -17 32 -13 6
-19 6 -19 -1z"/>
</g>
</svg>
